<svg width="128" height="128" viewBox="0 0 128 128" fill="none" xmlns="http://www.w3.org/2000/svg">
<path d="M114.325 80.7488C114.035 80.7488 113.747 80.6728 113.493 80.5248L110.843 78.9568C110.447 78.7358 110.64 78.6568 110.771 78.6118C111.299 78.4278 111.406 78.3848 111.969 78.0668C112.028 78.0338 112.105 78.0458 112.166 78.0818L114.201 79.2908C114.239 79.311 114.281 79.3216 114.324 79.3216C114.367 79.3216 114.409 79.311 114.447 79.2908L122.384 74.7098C122.421 74.6877 122.452 74.6563 122.474 74.6185C122.495 74.5808 122.506 74.5381 122.506 74.4948V65.3348C122.506 65.2908 122.495 65.2475 122.473 65.2091C122.452 65.1708 122.42 65.1386 122.383 65.1158L114.449 60.5388C114.411 60.5181 114.369 60.5073 114.326 60.5073C114.284 60.5073 114.241 60.5181 114.204 60.5388L106.271 65.1168C106.233 65.1395 106.202 65.1715 106.18 65.2096C106.158 65.2477 106.147 65.2908 106.146 65.3348V74.4948C106.146 74.5828 106.195 74.6658 106.271 74.7068L108.445 75.9638C109.625 76.5528 110.348 75.8588 110.348 75.1608V66.1158C110.348 65.9888 110.451 65.8878 110.578 65.8878H111.585C111.71 65.8878 111.814 65.9888 111.814 66.1158V75.1608C111.814 76.7348 110.957 77.6378 109.464 77.6378C109.005 77.6378 108.644 77.6378 107.636 77.1418L105.555 75.9438C105.302 75.7962 105.092 75.5848 104.946 75.3308C104.8 75.0767 104.723 74.7888 104.723 74.4958V65.3358C104.723 64.7408 105.04 64.1858 105.555 63.8898L113.492 59.3028C113.748 59.1635 114.034 59.0906 114.325 59.0906C114.617 59.0906 114.903 59.1635 115.159 59.3028L123.096 63.8898C123.61 64.1868 123.929 64.7418 123.929 65.3358V74.4958C123.928 74.7888 123.851 75.0766 123.705 75.3306C123.559 75.5847 123.349 75.796 123.096 75.9438L115.159 80.5258C114.906 80.6728 114.618 80.7497 114.325 80.7488ZM116.778 74.4378C113.303 74.4378 112.576 72.8428 112.576 71.5058C112.576 71.4449 112.601 71.3867 112.644 71.3438C112.687 71.3009 112.745 71.2768 112.806 71.2768H113.832C113.887 71.2766 113.94 71.296 113.982 71.3316C114.024 71.3672 114.051 71.4165 114.06 71.4708C114.214 72.5158 114.677 73.0428 116.778 73.0428C118.449 73.0428 119.161 72.6648 119.161 71.7768C119.161 71.2648 118.959 70.8858 116.361 70.6308C114.189 70.4158 112.846 69.9368 112.846 68.1978C112.846 66.5968 114.196 65.6408 116.458 65.6408C119.001 65.6408 120.259 66.5238 120.418 68.4178C120.42 68.4496 120.416 68.4817 120.406 68.512C120.396 68.5422 120.379 68.5701 120.358 68.5938C120.336 68.6165 120.31 68.6347 120.281 68.6472C120.252 68.6598 120.221 68.6664 120.19 68.6668H119.159C119.107 68.6668 119.056 68.6491 119.016 68.6166C118.975 68.584 118.947 68.5386 118.936 68.4878C118.688 67.3878 118.088 67.0368 116.457 67.0368C114.632 67.0368 114.42 67.6738 114.42 68.1488C114.42 68.7258 114.67 68.8938 117.135 69.2198C119.574 69.5428 120.733 69.9988 120.733 71.7138C120.734 73.4468 119.292 74.4378 116.778 74.4378ZM97.9819 68.4298C98.2949 68.2468 98.4879 67.9128 98.4879 67.5498V65.1958C98.4879 64.8338 98.2959 64.4998 97.9819 64.3168L89.6179 59.4608C89.4632 59.3708 89.2876 59.3233 89.1087 59.3229C88.9298 59.3226 88.7539 59.3694 88.5989 59.4588L80.1829 64.3178C80.0286 64.4071 79.9004 64.5354 79.8112 64.6899C79.7221 64.8443 79.6751 65.0194 79.6749 65.1978V74.9138C79.6749 75.2788 79.8709 75.6168 80.1889 75.7978L88.5519 80.5628C88.8599 80.7398 89.2379 80.7408 89.5489 80.5688L94.6069 77.7568C94.6856 77.7131 94.7513 77.6492 94.7973 77.5718C94.8432 77.4943 94.8678 77.4061 94.8684 77.316C94.869 77.226 94.8457 77.1374 94.8008 77.0593C94.7559 76.9813 94.691 76.9165 94.6129 76.8718L86.1449 72.0118C86.0672 71.9675 86.0026 71.9035 85.9577 71.8262C85.9127 71.749 85.889 71.6612 85.8889 71.5718V68.5258C85.8889 68.3438 85.9859 68.1768 86.1429 68.0868L88.7799 66.5668C88.8569 66.5221 88.9444 66.4985 89.0334 66.4985C89.1224 66.4985 89.2099 66.5221 89.2869 66.5668L91.9239 68.0868C92.0012 68.1311 92.0655 68.195 92.1103 68.2721C92.1551 68.3491 92.1787 68.4366 92.1789 68.5258V70.9218C92.1784 71.0114 92.2016 71.0995 92.2462 71.1772C92.2908 71.2549 92.3552 71.3194 92.4329 71.3641C92.5105 71.4088 92.5986 71.4321 92.6882 71.4317C92.7778 71.4313 92.8657 71.4072 92.9429 71.3618L97.9819 68.4298ZM88.9839 67.9738C89.0137 67.9571 89.0473 67.9484 89.0814 67.9484C89.1155 67.9484 89.1491 67.9571 89.1789 67.9738L90.7939 68.9068C90.8539 68.9418 90.8909 69.0068 90.8909 69.0758V70.9408C90.8909 71.0108 90.8539 71.0748 90.7939 71.1098L89.1789 72.0418C89.1493 72.059 89.1156 72.0681 89.0814 72.0681C89.0471 72.0681 89.0135 72.059 88.9839 72.0418L87.3699 71.1098C87.3401 71.0928 87.3153 71.0682 87.2981 71.0385C87.2808 71.0088 87.2718 70.9751 87.2719 70.9408V69.0758C87.2719 69.0068 87.3089 68.9418 87.3699 68.9068L88.9839 67.9738ZM67.0829 71.8538C67.0829 71.9438 67.0349 72.0278 66.9559 72.0738L64.0659 73.7398C64.0274 73.7624 63.9835 73.7743 63.9389 73.7743C63.8942 73.7743 63.8504 73.7624 63.8119 73.7398L60.9219 72.0738C60.8833 72.0514 60.8513 72.0193 60.829 71.9807C60.8068 71.9421 60.795 71.8983 60.7949 71.8538V68.5158C60.7949 68.4258 60.8439 68.3408 60.9219 68.2948L63.8119 66.6268C63.8504 66.6037 63.8945 66.5915 63.9394 66.5915C63.9843 66.5915 64.0284 66.6037 64.0669 66.6268L66.9579 68.2948C66.9962 68.3176 67.0279 68.3499 67.05 68.3887C67.0721 68.4274 67.0838 68.4712 67.0839 68.5158V71.8538H67.0829ZM67.8639 47.1378C67.7864 47.0954 67.6993 47.0739 67.611 47.0753C67.5227 47.0766 67.4362 47.1008 67.3601 47.1456C67.2839 47.1903 67.2207 47.254 67.1765 47.3304C67.1323 47.4069 67.1087 47.4935 67.1079 47.5818V60.4968C67.1076 60.5591 67.0912 60.6202 67.0602 60.6742C67.0291 60.7282 66.9846 60.7732 66.9309 60.8048C66.8767 60.8357 66.8153 60.852 66.7529 60.852C66.6905 60.852 66.6291 60.8357 66.5749 60.8048L64.4669 59.5898C64.3125 59.5009 64.1375 59.4541 63.9594 59.4541C63.7813 59.4541 63.6063 59.5009 63.4519 59.5898L55.0339 64.4478C54.8792 64.5371 54.7508 64.6655 54.6614 64.8201C54.5721 64.9748 54.525 65.1502 54.5249 65.3288V75.0478C54.5249 75.4108 54.7189 75.7458 55.0329 75.9288L63.4509 80.7898C63.7649 80.9718 64.1529 80.9718 64.4679 80.7898L72.8879 75.9288C73.0422 75.8392 73.1704 75.7107 73.2595 75.5561C73.3487 75.4015 73.3957 75.2262 73.3959 75.0478V50.8208C73.3959 50.4528 73.1959 50.1128 72.8749 49.9328L67.8639 47.1378ZM38.2379 59.4068C38.3923 59.3174 38.5675 59.2703 38.7459 59.2703C38.9243 59.2703 39.0995 59.3174 39.2539 59.4068L47.6719 64.2638C47.9859 64.4458 48.1799 64.7818 48.1799 65.1448V74.8668C48.1799 75.2298 47.9859 75.5658 47.6719 75.7478L39.2549 80.6088C39.1002 80.6977 38.9249 80.7446 38.7464 80.7446C38.5679 80.7446 38.3926 80.6977 38.2379 80.6088L29.8229 75.7478C29.6686 75.6582 29.5404 75.5297 29.4513 75.3751C29.3621 75.2205 29.3151 75.0452 29.3149 74.8668V65.1438C29.3149 64.7818 29.5089 64.4458 29.8229 64.2638L38.2379 59.4068ZM22.9299 65.0638C22.9299 64.6978 22.7379 64.3618 22.4219 64.1808L14.0069 59.3378C13.8656 59.2558 13.7062 59.2101 13.5429 59.2048H13.4559C13.2926 59.2103 13.1333 59.2559 12.9919 59.3378L4.57589 64.1808C4.42107 64.2704 4.29254 64.3991 4.2032 64.5541C4.11386 64.7091 4.06685 64.8849 4.06689 65.0638L4.08489 78.1038C4.08489 78.2858 4.17989 78.4548 4.33889 78.5428C4.41503 78.5889 4.50236 78.6133 4.59139 78.6133C4.68043 78.6133 4.76776 78.5889 4.84389 78.5428L9.84389 75.6788C10.1599 75.4908 10.3529 75.1598 10.3529 74.7968V68.7048C10.3529 68.3408 10.5449 68.0058 10.8599 67.8238L12.9899 66.5978C13.1438 66.5073 13.3193 66.46 13.4979 66.4608C13.6719 66.4608 13.8499 66.5048 14.0049 66.5978L16.1329 67.8238C16.4479 68.0058 16.6419 68.3408 16.6419 68.7048V74.7968C16.6419 75.1598 16.8369 75.4928 17.1509 75.6788L22.1509 78.5428C22.228 78.5868 22.3153 78.6099 22.4041 78.6097C22.4929 78.6095 22.5801 78.586 22.657 78.5416C22.7339 78.4972 22.7978 78.4334 22.8423 78.3565C22.8869 78.2797 22.9105 78.1926 22.9109 78.1038L22.9299 65.0638Z" fill="#83CD29"/>
</svg>
